999
"DXF R12 Output" (www.mydxf.blogspot.com)
 0 
SECTION
 2 
HEADER
 9 
$ACADVER
 1 
AC1009
 9 
$EXTMIN
 10 
 0 
 20 
 0 
 9 
$EXTMAX
 10 
 8.5 
 20 
 11 
 0 
ENDSEC
 0 
SECTION
 2 
ENTITIES
0
LINE
8
Layer 1
10
0.000000
20
0.000024
11
34.290000
21
0.000024
0
LINE
8
Layer 1
10
34.290000
20
0.000024
11
34.290000
21
30.480000
0
LINE
8
Layer 1
10
34.290000
20
30.480000
11
0.000000
21
30.480000
0
LINE
8
Layer 1
10
0.000000
20
30.480000
11
0.000000
21
0.000024
0
LINE
8
Layer 1
10
4.286250
20
3.810020
11
30.861000
21
3.810020
0
LINE
8
Layer 1
10
30.861000
20
3.810020
11
30.861000
21
26.822400
0
LINE
8
Layer 1
10
30.861000
20
26.822400
11
4.286250
21
26.822400
0
LINE
8
Layer 1
10
4.286250
20
26.822400
11
4.286250
21
3.810020
0
LINE
8
Layer 1
10
0.000000
20
30.480000
11
0.000000
21
30.056700
0
LINE
8
Layer 1
10
0.000000
20
30.480000
11
-0.423333
21
30.480000
0
LINE
8
Layer 1
10
4.286250
20
25.733600
11
4.851670
21
25.725000
0
LINE
8
Layer 1
10
4.851670
20
25.725000
11
5.417090
21
25.717400
0
LINE
8
Layer 1
10
5.417090
20
25.717400
11
5.982510
21
25.705800
0
LINE
8
Layer 1
10
5.982510
20
25.705800
11
6.547930
21
25.689900
0
LINE
8
Layer 1
10
6.547930
20
25.689900
11
7.113350
21
25.670000
0
LINE
8
Layer 1
10
7.113350
20
25.670000
11
7.678770
21
25.646400
0
LINE
8
Layer 1
10
7.678770
20
25.646400
11
8.244180
21
25.619700
0
LINE
8
Layer 1
10
8.244180
20
25.619700
11
8.809600
21
25.590300
0
LINE
8
Layer 1
10
8.809600
20
25.590300
11
9.375020
21
25.558900
0
LINE
8
Layer 1
10
9.375020
20
25.558900
11
9.940440
21
25.526100
0
LINE
8
Layer 1
10
9.940440
20
25.526100
11
10.505900
21
25.492500
0
LINE
8
Layer 1
10
10.505900
20
25.492500
11
11.071300
21
25.459100
0
LINE
8
Layer 1
10
11.071300
20
25.459100
11
11.636700
21
25.426500
0
LINE
8
Layer 1
10
11.636700
20
25.426500
11
12.202100
21
25.395600
0
LINE
8
Layer 1
10
12.202100
20
25.395600
11
12.767500
21
25.367400
0
LINE
8
Layer 1
10
12.767500
20
25.367400
11
13.333000
21
25.342700
0
LINE
8
Layer 1
10
13.333000
20
25.342700
11
13.898400
21
25.322300
0
LINE
8
Layer 1
10
13.898400
20
25.322300
11
14.463800
21
25.307000
0
LINE
8
Layer 1
10
14.463800
20
25.307000
11
15.029200
21
25.297600
0
LINE
8
Layer 1
10
15.029200
20
25.297600
11
15.594600
21
25.294500
0
LINE
8
Layer 1
10
15.594600
20
25.294500
11
16.160100
21
25.298300
0
LINE
8
Layer 1
10
16.160100
20
25.298300
11
16.725500
21
25.308500
0
LINE
8
Layer 1
10
16.725500
20
25.308500
11
17.290900
21
25.324600
0
LINE
8
Layer 1
10
17.290900
20
25.324600
11
17.856300
21
25.345400
0
LINE
8
Layer 1
10
17.856300
20
25.345400
11
18.421700
21
25.369300
0
LINE
8
Layer 1
10
18.421700
20
25.369300
11
18.987200
21
25.393900
0
LINE
8
Layer 1
10
18.987200
20
25.393900
11
19.552600
21
25.416700
0
LINE
8
Layer 1
10
19.552600
20
25.416700
11
20.118000
21
25.435400
0
LINE
8
Layer 1
10
20.118000
20
25.435400
11
20.683400
21
25.447500
0
LINE
8
Layer 1
10
20.683400
20
25.447500
11
21.248800
21
25.451700
0
LINE
8
Layer 1
10
21.248800
20
25.451700
11
21.814300
21
25.454000
0
LINE
8
Layer 1
10
21.814300
20
25.454000
11
22.379700
21
25.460600
0
LINE
8
Layer 1
10
22.379700
20
25.460600
11
22.945100
21
25.471500
0
LINE
8
Layer 1
10
22.945100
20
25.471500
11
23.510500
21
25.486300
0
LINE
8
Layer 1
10
23.510500
20
25.486300
11
24.075900
21
25.504500
0
LINE
8
Layer 1
10
24.075900
20
25.504500
11
24.641400
21
25.525500
0
LINE
8
Layer 1
10
24.641400
20
25.525500
11
25.206800
21
25.548700
0
LINE
8
Layer 1
10
25.206800
20
25.548700
11
25.772200
21
25.573400
0
LINE
8
Layer 1
10
25.772200
20
25.573400
11
26.337600
21
25.598800
0
LINE
8
Layer 1
10
26.337600
20
25.598800
11
26.903000
21
25.623900
0
LINE
8
Layer 1
10
26.903000
20
25.623900
11
27.468500
21
25.648100
0
LINE
8
Layer 1
10
27.468500
20
25.648100
11
28.033900
21
25.670400
0
LINE
8
Layer 1
10
28.033900
20
25.670400
11
28.599300
21
25.690100
0
LINE
8
Layer 1
10
28.599300
20
25.690100
11
29.164700
21
25.706700
0
LINE
8
Layer 1
10
29.164700
20
25.706700
11
29.730100
21
25.719400
0
LINE
8
Layer 1
10
29.730100
20
25.719400
11
30.295600
21
25.727900
0
LINE
8
Layer 1
10
30.295600
20
25.727900
11
30.861000
21
25.732900
0
LINE
8
Layer 1
10
4.286250
20
4.987510
11
4.851670
21
5.208400
0
LINE
8
Layer 1
10
4.851670
20
5.208400
11
5.417090
21
5.723300
0
LINE
8
Layer 1
10
5.417090
20
5.723300
11
5.982510
21
6.358270
0
LINE
8
Layer 1
10
5.982510
20
6.358270
11
6.547930
21
7.041110
0
LINE
8
Layer 1
10
6.547930
20
7.041110
11
7.113350
21
7.744440
0
LINE
8
Layer 1
10
7.113350
20
7.744440
11
7.678770
21
8.456140
0
LINE
8
Layer 1
10
7.678770
20
8.456140
11
8.244180
21
9.169790
0
LINE
8
Layer 1
10
8.244180
20
9.169790
11
8.809600
21
9.881390
0
LINE
8
Layer 1
10
8.809600
20
9.881390
11
9.375020
21
10.588000
0
LINE
8
Layer 1
10
9.375020
20
10.588000
11
9.940440
21
11.287300
0
LINE
8
Layer 1
10
9.940440
20
11.287300
11
10.505900
21
11.977100
0
LINE
8
Layer 1
10
10.505900
20
11.977100
11
11.071300
21
12.655100
0
LINE
8
Layer 1
10
11.071300
20
12.655100
11
11.636700
21
13.319400
0
LINE
8
Layer 1
10
11.636700
20
13.319400
11
12.202100
21
13.967600
0
LINE
8
Layer 1
10
12.202100
20
13.967600
11
12.767500
21
14.597300
0
LINE
8
Layer 1
10
12.767500
20
14.597300
11
13.333000
21
15.205900
0
LINE
8
Layer 1
10
13.333000
20
15.205900
11
13.898400
21
15.790500
0
LINE
8
Layer 1
10
13.898400
20
15.790500
11
14.463800
21
16.348200
0
LINE
8
Layer 1
10
14.463800
20
16.348200
11
15.029200
21
16.875800
0
LINE
8
Layer 1
10
15.029200
20
16.875800
11
15.594600
21
17.368000
0
LINE
8
Layer 1
10
15.594600
20
17.368000
11
16.160100
21
17.827500
0
LINE
8
Layer 1
10
16.160100
20
17.827500
11
16.725500
21
18.244700
0
LINE
8
Layer 1
10
16.725500
20
18.244700
11
17.290900
21
18.618700
0
LINE
8
Layer 1
10
17.290900
20
18.618700
11
17.856300
21
18.946800
0
LINE
8
Layer 1
10
17.856300
20
18.946800
11
18.421700
21
19.226900
0
LINE
8
Layer 1
10
18.421700
20
19.226900
11
18.987200
21
19.457300
0
LINE
8
Layer 1
10
18.987200
20
19.457300
11
19.552600
21
19.637100
0
LINE
8
Layer 1
10
19.552600
20
19.637100
11
20.118000
21
19.765600
0
LINE
8
Layer 1
10
20.118000
20
19.765600
11
20.683400
21
19.842800
0
LINE
8
Layer 1
10
20.683400
20
19.842800
11
21.248800
21
19.868500
0
LINE
8
Layer 1
10
21.248800
20
19.868500
11
21.814300
21
19.957500
0
LINE
8
Layer 1
10
21.814300
20
19.957500
11
22.379700
21
20.205700
0
LINE
8
Layer 1
10
22.379700
20
20.205700
11
22.945100
21
20.571400
0
LINE
8
Layer 1
10
22.945100
20
20.571400
11
23.510500
21
21.012100
0
LINE
8
Layer 1
10
23.510500
20
21.012100
11
24.075900
21
21.495200
0
LINE
8
Layer 1
10
24.075900
20
21.495200
11
24.641400
21
21.998100
0
LINE
8
Layer 1
10
24.641400
20
21.998100
11
25.206800
21
22.504600
0
LINE
8
Layer 1
10
25.206800
20
22.504600
11
25.772200
21
23.002600
0
LINE
8
Layer 1
10
25.772200
20
23.002600
11
26.337600
21
23.482300
0
LINE
8
Layer 1
10
26.337600
20
23.482300
11
26.903000
21
23.935100
0
LINE
8
Layer 1
10
26.903000
20
23.935100
11
27.468500
21
24.353000
0
LINE
8
Layer 1
10
27.468500
20
24.353000
11
28.033900
21
24.728300
0
LINE
8
Layer 1
10
28.033900
20
24.728300
11
28.599300
21
25.053300
0
LINE
8
Layer 1
10
28.599300
20
25.053300
11
29.164700
21
25.321000
0
LINE
8
Layer 1
10
29.164700
20
25.321000
11
29.730100
21
25.524800
0
LINE
8
Layer 1
10
29.730100
20
25.524800
11
30.295600
21
25.659200
0
LINE
8
Layer 1
10
30.295600
20
25.659200
11
30.861000
21
25.719500
0
LINE
8
Layer 1
10
4.286250
20
25.722900
11
4.851670
21
25.691600
0
LINE
8
Layer 1
10
4.851670
20
25.691600
11
5.417090
21
25.580700
0
LINE
8
Layer 1
10
5.417090
20
25.580700
11
5.982510
21
25.398800
0
LINE
8
Layer 1
10
5.982510
20
25.398800
11
6.547930
21
25.151200
0
LINE
8
Layer 1
10
6.547930
20
25.151200
11
7.113350
21
24.844400
0
LINE
8
Layer 1
10
7.113350
20
24.844400
11
7.678770
21
24.485200
0
LINE
8
Layer 1
10
7.678770
20
24.485200
11
8.244180
21
24.080900
0
LINE
8
Layer 1
10
8.244180
20
24.080900
11
8.809600
21
23.638400
0
LINE
8
Layer 1
10
8.809600
20
23.638400
11
9.375020
21
23.164400
0
LINE
8
Layer 1
10
9.375020
20
23.164400
11
9.940440
21
22.665200
0
LINE
8
Layer 1
10
9.940440
20
22.665200
11
10.505900
21
22.146200
0
LINE
8
Layer 1
10
10.505900
20
22.146200
11
11.071300
21
21.613000
0
LINE
8
Layer 1
10
11.071300
20
21.613000
11
11.636700
21
21.070200
0
LINE
8
Layer 1
10
11.636700
20
21.070200
11
12.202100
21
20.522500
0
LINE
8
Layer 1
10
12.202100
20
20.522500
11
12.767500
21
19.974200
0
LINE
8
Layer 1
10
12.767500
20
19.974200
11
13.333000
21
19.429600
0
LINE
8
Layer 1
10
13.333000
20
19.429600
11
13.898400
21
18.892600
0
LINE
8
Layer 1
10
13.898400
20
18.892600
11
14.463800
21
18.367600
0
LINE
8
Layer 1
10
14.463800
20
18.367600
11
15.029200
21
17.858800
0
LINE
8
Layer 1
10
15.029200
20
17.858800
11
15.594600
21
17.372500
0
LINE
8
Layer 1
10
15.594600
20
17.372500
11
16.160100
21
16.906900
0
LINE
8
Layer 1
10
16.160100
20
16.906900
11
16.725500
21
16.473400
0
LINE
8
Layer 1
10
16.725500
20
16.473400
11
17.290900
21
16.074700
0
LINE
8
Layer 1
10
17.290900
20
16.074700
11
17.856300
21
15.715600
0
LINE
8
Layer 1
10
17.856300
20
15.715600
11
18.421700
21
15.401100
0
LINE
8
Layer 1
10
18.421700
20
15.401100
11
18.987200
21
15.136000
0
LINE
8
Layer 1
10
18.987200
20
15.136000
11
19.552600
21
14.924500
0
LINE
8
Layer 1
10
19.552600
20
14.924500
11
20.118000
21
14.770600
0
LINE
8
Layer 1
10
20.118000
20
14.770600
11
20.683400
21
14.677000
0
LINE
8
Layer 1
10
20.683400
20
14.677000
11
21.248800
21
14.645600
0
LINE
8
Layer 1
10
21.248800
20
14.645600
11
21.814300
21
14.546400
0
LINE
8
Layer 1
10
21.814300
20
14.546400
11
22.379700
21
14.267300
0
LINE
8
Layer 1
10
22.379700
20
14.267300
11
22.945100
21
13.849600
0
LINE
8
Layer 1
10
22.945100
20
13.849600
11
23.510500
21
13.334600
0
LINE
8
Layer 1
10
23.510500
20
13.334600
11
24.075900
21
12.753600
0
LINE
8
Layer 1
10
24.075900
20
12.753600
11
24.641400
21
12.127600
0
LINE
8
Layer 1
10
24.641400
20
12.127600
11
25.206800
21
11.470300
0
LINE
8
Layer 1
10
25.206800
20
11.470300
11
25.772200
21
10.791100
0
LINE
8
Layer 1
10
25.772200
20
10.791100
11
26.337600
21
10.096600
0
LINE
8
Layer 1
10
26.337600
20
10.096600
11
26.903000
21
9.392030
0
LINE
8
Layer 1
10
26.903000
20
9.392030
11
27.468500
21
8.681750
0
LINE
8
Layer 1
10
27.468500
20
8.681750
11
28.033900
21
7.970460
0
LINE
8
Layer 1
10
28.033900
20
7.970460
11
28.599300
21
7.264270
0
LINE
8
Layer 1
10
28.599300
20
7.264270
11
29.164700
21
6.573290
0
LINE
8
Layer 1
10
29.164700
20
6.573290
11
29.730100
21
5.918440
0
LINE
8
Layer 1
10
29.730100
20
5.918440
11
30.295600
21
5.352170
0
LINE
8
Layer 1
10
30.295600
20
5.352170
11
30.861000
21
5.012060
0
LINE
8
Layer 1
10
4.286250
20
3.810020
11
4.286250
21
26.822400
0
LINE
8
Layer 1
10
30.861000
20
3.810020
11
30.861000
21
26.822400
0
LINE
8
Layer 1
10
4.286250
20
3.810020
11
30.861000
21
3.810020
0
LINE
8
Layer 1
10
4.286250
20
26.822400
11
30.861000
21
26.822400
0
LINE
8
Layer 1
10
15.604100
20
3.734800
11
15.604100
21
26.892900
0
LINE
8
Layer 1
10
21.245200
20
3.644020
11
21.245200
21
26.802100
 0 
ENDSEC
 0 
EOF